# xmcd
#
# Track frame offsets:
#	150
#	5156
#	24735
#	43748
#	63474
#	79700
#	99634
#	123635
#	140795
#	162559
#	180737
#
# Disc length: 2696 seconds
#
# Revision: 8
# Processed by: cddbd v1.5.2PL0 Copyright (c) Steve Scherf et al.
# Submitted via: Jack! The Knife
#
DISCID=a00a860b
DTITLE=Ligabue - Nome e cognome
DYEAR=2005
DGENRE=Rock
TTITLE0=Intro
TTITLE1=Il giorno dei giorni
TTITLE2=Happy hour
TTITLE3=L'amore conta
TTITLE4=Cosa vuoi che sia
TTITLE5=Le donne lo sanno
TTITLE6=Lettera a G
TTITLE7=Vivere a orecchio
TTITLE8=Giorno per giorno
TTITLE9=E' più forte di me
TTITLE10=Sono qui per l'amore
EXTD=Fabrizio Barbacci, Luca Pernici e Ligabue
EXTT0=Luciano Ligabue
EXTT1=Luciano Ligabue
EXTT2=Luciano Ligabue
EXTT3=Luciano Ligabue
EXTT4=Luciano Ligabue
EXTT5=Luciano Ligabue
EXTT6=Luciano Ligabue
EXTT7=Luciano Ligabue
EXTT8=Luciano Ligabue
EXTT9=Luciano Ligabue
EXTT10=Luciano Ligabue
PLAYORDER=
